#!OML:ASF E:\EmotionMaleHayes\Project 1\Capture day 1\Session 1\Male1.ASF
:FULLY-SPECIFIED
:DEGREES
56
root -27.8376 16.4363 2.161 -33.5454 83.9762 -35.4394
lowerback 8.15438 3.36614 2.68509
upperback 3.22734 4.75897 -0.0463067
thorax -0.997784 2.43109 -1.96142
lowerneck -22.2825 0.116078 2.08055
upperneck 21.5819 -0.222847 -0.896874
head 10.6187 -0.00205586 -0.694397
rclavicle -2.88238e-015 8.54774e-015
rhumerus -20.9392 12.659 -90.4455
rradius 35.8869
rwrist -2.98192
rhand -14.7455 -28.0036
rfingers 7.12502
rthumb 11.4102 -57.6731
lclavicle -2.88238e-015 8.54774e-015
lhumerus -40.0271 0.92238 84.3329
lradius 24.6896
lwrist -13.0103
lhand -12.9639 -26.7597
lfingers 7.12502
lthumb 13.128 2.8071
rfemur 15.9276 -1.64694 25.9047
rtibia -6.36111e-015
rfoot -23.5985 -4.99381
rtoes 4.10394
lfemur -35.6881 1.33377 -13.4707
ltibia 37.7433
lfoot -18.8567 7.45016
ltoes -10.2871
57
root -27.7487 16.423 2.14768 -31.1172 83.9428 -33.0043
lowerback 8.07261 3.40845 2.45991
upperback 3.28311 4.79465 -0.132229
thorax -0.904558 2.45035 -1.91946
lowerneck -22.2302 0.153473 2.18983
upperneck 21.7243 -0.164766 -1.0396
head 10.6619 0.0181495 -0.755307
rclavicle -8.39865e-015 1.05356e-014
rhumerus -20.744 12.5242 -90.3881
rradius 35.8938
rwrist -3.17933
rhand -14.6717 -26.9872
rfingers 7.12502
rthumb 11.4814 -56.6528
lclavicle -8.39865e-015 1.05356e-014
lhumerus -40.0609 1.49263 83.9595
lradius 24.198
lwrist -13.7209
lhand -13.0583 -26.8524
lfingers 7.12502
lthumb 13.037 2.72018
rfemur 16.2858 -1.32193 25.6479
rtibia 5.08889e-014
rfoot -23.859 -4.97886
rtoes 4.90239
lfemur -35.8121 1.25892 -13.6046
ltibia 37.7781
lfoot -18.9783 7.3818
ltoes -9.29986
58
root -27.6564 16.4026 2.1354 -28.9401 83.77 -30.7584
lowerback 8.09347 3.46639 2.28811
upperback 3.30587 4.85841 -0.199339
thorax -0.897904 2.48189 -1.89871
lowerneck -21.9776 0.176155 2.0893
upperneck 21.7265 -0.12797 -0.88831
head 10.6169 0.0475766 -0.677639
rclavicle 2.22639e-014 5.36719e-015
rhumerus -20.8173 12.5057 -90.4136
rradius 36.2168
rwrist -3.35056
rhand -14.5649 -26.5864
rfingers 7.12502
rthumb 11.5844 -56.2462
lclavicle 2.22639e-014 5.36719e-015
lhumerus -40.1748 2.13139 83.5247
lradius 23.7377
lwrist -14.61
lhand -13.4886 -27.1519
lfingers 7.12502
lthumb 12.6222 2.44673
rfemur 16.7252 -0.905822 25.5076
rtibia -1.27222e-014
rfoot -24.0574 -5.18476
rtoes 3.95959
lfemur -35.8212 1.06672 -13.5867
ltibia 37.8443
lfoot -18.9441 7.58787
ltoes -8.19452
59
root -27.5618 16.3861 2.12266 -30.063 83.5374 -31.8274
lowerback 8.15121 3.49527 2.40891
upperback 3.33698 4.90881 -0.168915
thorax -0.887499 2.50889 -1.94106
lowerneck -21.9434 0.184738 2.21623
upperneck 21.857 -0.139985 -0.942767
head 10.658 0.0484524 -0.720417
rclavicle 1.88845e-014 -8.54774e-015
rhumerus -20.838 12.448 -90.4514
rradius 36.4723
rwrist -3.27649
rhand -14.7664 -26.479
rfingers 7.12502
rthumb 11.39 -56.1497
lclavicle 1.88845e-014 -8.54774e-015
lhumerus -40.1891 2.57123 83.1513
lradius 23.2222
lwrist -15.4072
lhand -13.4507 -27.3672
lfingers 7.12502
lthumb 12.6587 2.22919
rfemur 17.1688 -0.624 25.7549
rtibia -2.54444e-014
rfoot -24.2291 -5.53977
rtoes 3.0968
lfemur -35.7562 0.657577 -13.155
ltibia 37.9906
lfoot -19.1477 7.69948
ltoes -7.00716
60
root -27.4637 16.3687 2.10931 -29.8492 83.4174 -31.6838
lowerback 7.9667 3.51966 2.39186
upperback 3.43554 4.93612 -0.185352
thorax -0.682694 2.52761 -1.93253
lowerneck -22.2491 0.198613 2.34653
upperneck 22.1467 -0.138258 -1.06333
head 10.8215 0.0476626 -0.787415
rclavicle 2.4202e-014 -1.0138e-014
rhumerus -20.5843 12.4296 -90.4311
rradius 36.5447
rwrist -3.19737
rhand -14.8283 -26.302
rfingers 7.12502
rthumb 11.3303 -55.976
lclavicle 2.4202e-014 -1.0138e-014
lhumerus -40.0583 2.90247 82.905
lradius 22.7581
lwrist -15.9317
lhand -14.2285 -27.9782
lfingers 7.12502
lthumb 11.9088 1.6631
rfemur 17.4917 -0.354683 25.7988
rtibia 2.22639e-014
rfoot -24.5068 -5.82758
rtoes 2.78896
lfemur -35.8818 0.461778 -13.0234
ltibia 38.2352
lfoot -19.1965 7.89374
ltoes -8.47053
61
root -27.3638 16.3491 2.09537 -28.5901 83.2064 -30.4446
lowerback 7.87907 3.55644 2.3322
upperback 3.48131 4.97801 -0.247116
thorax -0.58461 2.55076 -1.95733
lowerneck -22.3393 0.236767 2.363
upperneck 22.2509 -0.105599 -1.01106
head 10.8778 0.071783 -0.766786
rclavicle 2.61402e-014 -4.77083e-015
rhumerus -20.4071 12.5955 -90.5086
rradius 36.6645
rwrist -3.33732
rhand -14.6104 -26.2695
rfingers 7.12502
rthumb 11.5405 -55.9318
lclavicle 2.61402e-014 -4.77083e-015
lhumerus -40.1418 3.29819 82.5743
lradius 22.4913
lwrist -16.3898
lhand -13.6152 -27.4383
lfingers 7.12502
lthumb 12.5001 2.16787
rfemur 17.876 0.0548798 25.7601
rtibia -4.77083e-014
rfoot -24.8176 -6.15765
rtoes 1.98672
lfemur -35.9622 0.587621 -13.0509
ltibia 38.6253
lfoot -19.0328 8.09082
ltoes -9.93272
